<svg xmlns="http://www.w3.org/2000/svg" width="70" height="19" viewBox="0 0 70 19" fill="none">
  <g opacity="0.3" clip-path="url(#clip0_145_14018)">
    <path d="M36.6147 0H33.3848V11.7282H36.6147V0Z" fill="white"/>
    <path d="M50.6484 0V2.44316H54.7132V11.7282H57.9414V2.44316H62.0062V0H50.6484Z" fill="white"/>
    <path d="M46.1502 4.6425H43.4495C42.7325 4.6425 42.1503 4.3575 42.1503 3.54201C42.1503 2.72652 42.7325 2.44152 43.4495 2.44152H49.2538V0H43.0654C40.7556 0 38.8828 1.28666 38.8828 3.54201C38.8828 5.79736 40.7556 7.08402 43.0654 7.08402H45.8429C46.5599 7.08402 47.1403 7.37068 47.1403 8.18451C47.1403 8.99835 46.5599 9.28336 45.8429 9.28336H39.3301V11.7265H46.1485C48.4583 11.7265 50.331 10.4432 50.331 8.18616C50.331 5.92916 48.4583 4.64086 46.1485 4.64086" fill="white"/>
    <path d="M23.5515 0L18.9831 10.5535L14.6282 5.86326L20.074 0H16.3848L11.2241 5.56672V0H7.99414V11.7282H11.2241V6.1598L16.3848 11.7282H21.7573L25.4567 2.88303L28.142 9.38715H23.8724L24.8865 11.7282H32.439L27.3619 0H23.5515Z" fill="white"/>
    <mask id="mask0_145_14018" style="mask-type:luminance" maskUnits="userSpaceOnUse" x="0" y="14" width="70" height="5">
      <path d="M0.5 16.6541C11.7707 18.1994 23.2889 19 35 19C46.7111 19 58.231 18.1994 69.5 16.6541C58.2293 15.1088 46.7128 14.3081 35 14.3081C23.2872 14.3081 11.7707 15.1088 0.5 16.6541Z" fill="white"/>
    </mask>
    <g mask="url(#mask0_145_14018)">
      <path d="M69.5 14.3081H0.5V19H69.5V14.3081Z" fill="white"/>
    </g>
  </g>
  <defs>
    <clipPath id="clip0_145_14018">
      <rect width="69" height="19" fill="white" transform="translate(0.5)"/>
    </clipPath>
  </defs>
</svg>