<svg width="87" height="87" viewBox="0 0 87 87" fill="none" xmlns="http://www.w3.org/2000/svg">
<rect width="87" height="87" fill="black"/>
<g clip-path="url(#clip0_102_5072)">
<path d="M43.1474 76C61.4542 76 76.2947 61.4493 76.2947 43.5C76.2947 25.5507 61.4542 11 43.1474 11C24.8406 11 10 25.5507 10 43.5C10 61.4493 24.8406 76 43.1474 76Z" fill="#C6D2FF"/>
<path d="M39.2679 18.6063H21.9889C20.931 19.6436 19.8731 19.9893 16.3468 24.484C13.4651 28.1571 12.703 30.2464 12.1152 31.7446H30.8047C32.4973 31.7446 32.5679 30.3616 32.5679 29.6702C32.5679 28.9787 32.2152 27.5957 30.8047 27.5957H24.1047C21.6363 27.5957 21.9889 26.2127 21.9889 25.5212C21.9889 24.8297 22.3415 23.101 24.1047 23.101H39.2679C41.2798 23.101 42.0889 22.3404 42.0889 20.6808C42.0889 19.0212 40.2082 18.6063 39.2679 18.6063Z" fill="white"/>
<path d="M46.6746 69.0851H63.6009C64.6588 68.0479 66.0693 67.7022 69.5956 63.2075C72.4774 59.5344 73.2395 57.4451 73.8272 55.9468H55.1377C53.4451 55.9468 53.3746 57.3298 53.3746 58.0213C53.3746 58.7128 53.7272 60.0958 55.1377 60.0958H61.8377C64.3061 60.0958 63.9535 61.4788 63.9535 62.1702C63.9535 62.8617 63.6009 64.5905 61.8377 64.5905H46.6746C44.6626 64.5905 43.8535 65.3511 43.8535 67.0107C43.8535 68.6702 45.7342 69.0851 46.6746 69.0851Z" fill="white"/>
<path d="M50.1749 24.484H69.9469C72.0626 26.9042 73.8258 30.3617 75.2363 35.2021C76.265 38.7323 76.6469 45.5744 75.9416 47.9946H54.5951C52.9877 47.9946 51.7822 47.211 51.7822 45.2517C51.7822 43.6844 52.9877 42.9007 54.5951 42.9007H70.6686C71.8741 42.9007 73.0796 42.5089 73.0796 40.5496C73.0796 38.9823 71.8741 38.1985 70.6686 38.1985H44.1473C43.3437 38.1985 41.7363 37.7283 41.7363 35.8475C41.7363 33.9666 43.3437 33.4964 44.1473 33.4964H58.2116C59.4171 33.4964 60.2208 32.7127 60.2208 31.1453C60.2208 29.8915 59.4171 29.1861 57.8098 29.1861H50.1749C48.5675 29.1861 47.362 28.7943 47.362 26.8351C47.362 25.2677 49.2373 24.6146 50.1749 24.484Z" fill="white"/>
<path d="M33.7268 64.2447H17.8263C14.6526 60.4415 14.091 59.2379 12.1841 54.5639C10.7736 51.1064 9.71571 47.3032 10.0683 40.7341H29.3067C30.914 40.7341 32.1195 41.5177 32.1195 43.477C32.1195 45.0443 30.914 45.8281 29.3067 45.8281H13.2332C12.0277 45.8281 10.8222 46.2199 10.8222 48.1791C10.8222 49.7465 12.0277 50.5302 13.2332 50.5302H39.7544C40.5581 50.5302 42.1654 51.0004 42.1654 52.8813C42.1654 54.7621 40.5581 55.2323 39.7544 55.2323H25.6901C24.4846 55.2323 23.6809 56.016 23.6809 57.5834C23.6809 58.8373 24.4846 59.5426 26.0919 59.5426H33.7268C35.3342 59.5426 36.5397 59.9344 36.5397 61.8936C36.5397 63.461 34.6645 64.1141 33.7268 64.2447Z" fill="white"/>
</g>
<defs>
<clipPath id="clip0_102_5072">
<rect width="67" height="65" fill="white" transform="translate(10 11)"/>
</clipPath>
</defs>
</svg>
